<svg xmlns="http://www.w3.org/2000/svg" width="574" height="306" viewBox="0 0 574 306" font-family="Segoe UI, Helvetica, Arial, sans-serif">
<rect width="574" height="306" fill="#ffffff"/>
<text x="24" y="46" font-size="18" font-weight="600" fill="#1a1a1a">Precision / recall / F1 per class</text>
<text x="226" y="88" font-size="12" font-weight="600" fill="#666" text-anchor="end">precision</text>
<text x="330" y="88" font-size="12" font-weight="600" fill="#666" text-anchor="end">recall</text>
<text x="434" y="88" font-size="12" font-weight="600" fill="#666" text-anchor="end">f1</text>
<text x="538" y="88" font-size="12" font-weight="600" fill="#666" text-anchor="end">support</text>
<line x1="24" y1="95" x2="550" y2="95" stroke="#d0d0d0" stroke-width="1"/>
<rect x="24" y="101" width="526" height="34" fill="#fafafa"/>
<text x="34" y="122" font-size="13" fill="#1a1a1a">class A</text>
<text x="226" y="122" font-size="13" fill="#1a1a1a" text-anchor="end">0.7778</text>
<text x="330" y="122" font-size="13" fill="#1a1a1a" text-anchor="end">0.8167</text>
<rect x="354" y="108" width="63.7" height="20" rx="3" fill="#cae2d7"/>
<text x="434" y="122" font-size="13" fill="#1a1a1a" text-anchor="end">0.7967</text>
<text x="538" y="122" font-size="13" fill="#1a1a1a" text-anchor="end">60</text>
<text x="34" y="156" font-size="13" fill="#1a1a1a">class B</text>
<text x="226" y="156" font-size="13" fill="#1a1a1a" text-anchor="end">0.7344</text>
<text x="330" y="156" font-size="13" fill="#1a1a1a" text-anchor="end">0.7833</text>
<rect x="354" y="142" width="60.6" height="20" rx="3" fill="#cae2d7"/>
<text x="434" y="156" font-size="13" fill="#1a1a1a" text-anchor="end">0.7581</text>
<text x="538" y="156" font-size="13" fill="#1a1a1a" text-anchor="end">60</text>
<rect x="24" y="169" width="526" height="34" fill="#fafafa"/>
<text x="34" y="190" font-size="13" fill="#1a1a1a">class C</text>
<text x="226" y="190" font-size="13" fill="#1a1a1a" text-anchor="end">0.7736</text>
<text x="330" y="190" font-size="13" fill="#1a1a1a" text-anchor="end">0.6833</text>
<rect x="354" y="176" width="58.1" height="20" rx="3" fill="#cae2d7"/>
<text x="434" y="190" font-size="13" fill="#1a1a1a" text-anchor="end">0.7257</text>
<text x="538" y="190" font-size="13" fill="#1a1a1a" text-anchor="end">60</text>
<line x1="24" y1="203" x2="550" y2="203" stroke="#d0d0d0" stroke-width="1"/>
<text x="34" y="232" font-size="13" font-weight="600" fill="#1a1a1a">macro avg</text>
<text x="226" y="232" font-size="13" font-weight="600" fill="#1a1a1a" text-anchor="end">0.7619</text>
<text x="330" y="232" font-size="13" font-weight="600" fill="#1a1a1a" text-anchor="end">0.7611</text>
<rect x="354" y="218" width="60.8" height="20" rx="3" fill="#cae2d7"/>
<text x="434" y="232" font-size="13" font-weight="600" fill="#1a1a1a" text-anchor="end">0.7602</text>
<text x="538" y="232" font-size="13" font-weight="600" fill="#1a1a1a" text-anchor="end">180</text>
<text x="34" y="266" font-size="13" font-weight="600" fill="#1a1a1a">accuracy</text>
<rect x="354" y="252" width="60.9" height="20" rx="3" fill="#cae2d7"/>
<text x="434" y="266" font-size="13" font-weight="600" fill="#1a1a1a" text-anchor="end">0.7611</text>
<text x="538" y="266" font-size="13" font-weight="600" fill="#1a1a1a" text-anchor="end">180</text>
</svg>