<svg xmlns="http://www.w3.org/2000/svg" width="473" height="388" viewBox="0 0 473 388" font-family="Segoe UI, Helvetica, Arial, sans-serif">
<rect width="473" height="388" fill="#ffffff"/>
<text x="24" y="44" font-size="18" font-weight="600" fill="#1a1a1a">Confusion matrix - 3-class blobs (test set)</text>
<text x="213.0" y="86" font-size="13" font-weight="600" fill="#444" text-anchor="middle">predicted</text>
<text x="38" y="214.0" font-size="13" font-weight="600" fill="#444" text-anchor="middle" transform="rotate(-90 38 214.0)">actual</text>
<text x="149.0" y="106" font-size="12" fill="#333" text-anchor="middle">class A</text>
<text x="213.0" y="106" font-size="12" fill="#333" text-anchor="middle">class B</text>
<text x="277.0" y="106" font-size="12" fill="#333" text-anchor="middle">class C</text>
<text x="105" y="154.0" font-size="12" fill="#333" text-anchor="end">class A</text>
<rect x="117" y="118" width="64" height="64" fill="#3c926b" stroke="#ffffff" stroke-width="2"/>
<text x="149.0" y="148.0" font-size="15" font-weight="600" fill="#ffffff" text-anchor="middle">49</text>
<text x="149.0" y="165.0" font-size="11" fill="#ffffff" opacity="0.85" text-anchor="middle">82%</text>
<rect x="181" y="118" width="64" height="64" fill="#faeeed" stroke="#ffffff" stroke-width="2"/>
<text x="213.0" y="148.0" font-size="15" font-weight="600" fill="#1a1a1a" text-anchor="middle">5</text>
<text x="213.0" y="165.0" font-size="11" fill="#1a1a1a" opacity="0.85" text-anchor="middle">8%</text>
<rect x="245" y="118" width="64" height="64" fill="#f8ebea" stroke="#ffffff" stroke-width="2"/>
<text x="277.0" y="148.0" font-size="15" font-weight="600" fill="#1a1a1a" text-anchor="middle">6</text>
<text x="277.0" y="165.0" font-size="11" fill="#1a1a1a" opacity="0.85" text-anchor="middle">10%</text>
<text x="105" y="218.0" font-size="12" fill="#333" text-anchor="end">class B</text>
<rect x="117" y="182" width="64" height="64" fill="#f7e7e6" stroke="#ffffff" stroke-width="2"/>
<text x="149.0" y="212.0" font-size="15" font-weight="600" fill="#1a1a1a" text-anchor="middle">7</text>
<text x="149.0" y="229.0" font-size="11" fill="#1a1a1a" opacity="0.85" text-anchor="middle">12%</text>
<rect x="181" y="182" width="64" height="64" fill="#449771" stroke="#ffffff" stroke-width="2"/>
<text x="213.0" y="212.0" font-size="15" font-weight="600" fill="#ffffff" text-anchor="middle">47</text>
<text x="213.0" y="229.0" font-size="11" fill="#ffffff" opacity="0.85" text-anchor="middle">78%</text>
<rect x="245" y="182" width="64" height="64" fill="#f8ebea" stroke="#ffffff" stroke-width="2"/>
<text x="277.0" y="212.0" font-size="15" font-weight="600" fill="#1a1a1a" text-anchor="middle">6</text>
<text x="277.0" y="229.0" font-size="11" fill="#1a1a1a" opacity="0.85" text-anchor="middle">10%</text>
<text x="105" y="282.0" font-size="12" fill="#333" text-anchor="end">class C</text>
<rect x="117" y="246" width="64" height="64" fill="#f7e7e6" stroke="#ffffff" stroke-width="2"/>
<text x="149.0" y="276.0" font-size="15" font-weight="600" fill="#1a1a1a" text-anchor="middle">7</text>
<text x="149.0" y="293.0" font-size="11" fill="#1a1a1a" opacity="0.85" text-anchor="middle">12%</text>
<rect x="181" y="246" width="64" height="64" fill="#f2d6d4" stroke="#ffffff" stroke-width="2"/>
<text x="213.0" y="276.0" font-size="15" font-weight="600" fill="#1a1a1a" text-anchor="middle">12</text>
<text x="213.0" y="293.0" font-size="11" fill="#1a1a1a" opacity="0.85" text-anchor="middle">20%</text>
<rect x="245" y="246" width="64" height="64" fill="#5ca483" stroke="#ffffff" stroke-width="2"/>
<text x="277.0" y="276.0" font-size="15" font-weight="600" fill="#ffffff" text-anchor="middle">41</text>
<text x="277.0" y="293.0" font-size="11" fill="#ffffff" opacity="0.85" text-anchor="middle">68%</text>
<rect x="117" y="329" width="13" height="13" fill="#348e65"/>
<text x="136" y="340" font-size="12" fill="#444">correct</text>
<rect x="205" y="329" width="13" height="13" fill="#c8524a"/>
<text x="224" y="340" font-size="12" fill="#444">misclassified</text>
<text x="309" y="340" font-size="12" fill="#444" text-anchor="end">accuracy 76.1% (137/180)</text>
</svg>